<!DOCTYPE svg PUBLIC "-//W3C//DTD SVG 1.1//EN" "http://www.w3.org/Graphics/SVG/1.1/DTD/svg11.dtd">
<svg version="1.1" id="IconsRepoEditor" xmlns="http://www.w3.org/2000/svg" xmlns:xlink="http://www.w3.org/1999/xlink" x="0px" y="0px" viewBox="0 0 466.211 466.211" style="enable-background:new 0 0 466.211 466.211;" xml:space="preserve" width="100px" height="100px" fill="#2e74b7" stroke="#2e74b7" stroke-width="0" transform="matrix(1, 0, 0, 1, 0, 0)">
<g id="IconsRepo_bgCarrier"/> <path d="M10,256.612h162.882h0.066c6.725-1,12.356-1.525,12.456-1.547c33.583-7.599,56.024-39.279,52.202-73.542 c-3.429-30.733-31.227-53.002-61.957-49.576c-12.441,1.388-23.599,7.51-31.415,17.289c-7.815,9.779-11.355,22.002-9.968,34.445 c2.415,21.643,21.99,37.277,43.63,34.863c8.918-0.995,16.915-5.407,22.518-12.417c5.604-7.01,8.141-15.784,7.146-24.702 c-0.855-7.666-4.645-14.541-10.67-19.356s-13.559-6.994-21.23-6.141c-5.488,0.612-9.441,5.558-8.829,11.048 c0.612,5.49,5.564,9.439,11.048,8.829c2.351-0.259,4.673,0.406,6.525,1.887c1.852,1.48,3.017,3.594,3.279,5.951 c0.403,3.608-0.624,7.158-2.892,9.995c-2.267,2.836-5.503,4.62-9.112,5.022c-10.698,1.198-20.344-6.529-21.535-17.211 c-0.796-7.133,1.233-14.148,5.714-19.755c4.481-5.605,10.877-9.132,18.009-9.927c19.783-2.205,37.658,12.086,39.863,31.859 c2.688,24.099-13.063,46.528-36.651,51.911c-0.405,0.079-4.139,0.075-8.333,1.075H10c-5.522,0-10,4.478-10,10 S4.478,256.612,10,256.612z"/> <path d="M10,295.612h276.973h0.066c6.803,0,12.388-1.481,12.455-1.496c33.583-7.597,56.025-39.251,52.203-73.514 c-1.661-14.889-9.021-28.283-20.723-37.636c-11.702-9.354-26.347-13.611-41.234-11.95c-12.441,1.388-23.599,7.527-31.415,17.306 c-7.815,9.779-11.355,22.011-9.968,34.453c2.415,21.642,21.989,37.282,43.63,34.867c8.918-0.995,16.916-5.405,22.519-12.414 s8.14-15.782,7.146-24.701c-0.855-7.666-4.646-14.54-10.671-19.356c-6.024-4.816-13.561-6.993-21.23-6.141 c-5.488,0.612-9.441,5.559-8.829,11.048c0.613,5.49,5.564,9.441,11.048,8.829c2.351-0.259,4.674,0.407,6.525,1.888 c1.853,1.479,3.018,3.593,3.28,5.949c0.402,3.609-0.624,7.159-2.892,9.995c-2.268,2.837-5.504,4.621-9.113,5.023 c-10.68,1.201-20.344-6.528-21.535-17.212c-0.796-7.132,1.233-14.147,5.714-19.754c4.481-5.605,10.877-9.132,18.01-9.927 c9.578-1.069,19,1.655,26.529,7.674c7.529,6.018,12.265,14.606,13.333,24.186c2.689,24.104-13.072,46.487-36.657,51.858 c-0.374,0.074-4.106,1.022-8.325,1.022H10c-5.522,0-10,4.478-10,10S4.478,295.612,10,295.612z"/> <path d="M465.788,259.619c-1.661-14.889-9.021-28.239-20.723-37.592c-11.702-9.354-26.345-13.587-41.234-11.928 c-25.683,2.864-44.247,26.091-41.383,51.775c1.17,10.483,6.353,19.885,14.594,26.472c8.241,6.588,18.558,9.568,29.037,8.399 c18.409-2.055,31.716-18.703,29.663-37.114c-1.767-15.823-16.077-27.246-31.9-25.496c-5.488,0.612-9.442,5.558-8.83,11.047 c0.612,5.488,5.543,9.442,11.047,8.83c4.876-0.538,9.264,2.975,9.807,7.837c0.831,7.45-4.555,14.188-12.005,15.02 c-5.173,0.578-10.265-0.896-14.332-4.146c-4.067-3.252-6.626-7.892-7.203-13.066c-1.643-14.724,9-28.039,23.724-29.681 c9.578-1.069,19.001,1.655,26.529,7.674c7.529,6.018,12.265,14.606,13.333,24.186c2.689,24.106-13.071,46.437-36.657,51.807 c-0.38,0.074-4.107,0.969-8.321,0.969H10c-5.522,0-10,4.478-10,10s4.478,10,10,10h391.064h0.066c6.803,0,12.388-1.429,12.455-1.443 C447.169,325.572,469.61,293.881,465.788,259.619z"/> </svg>